<?xml version="1.0" encoding="UTF-8" standalone="no"?>
<svg
   xmlns:dc="http://purl.org/dc/elements/1.1/"
   xmlns:cc="http://creativecommons.org/ns#"
   xmlns:rdf="http://www.w3.org/1999/02/22-rdf-syntax-ns#"
   xmlns:svg="http://www.w3.org/2000/svg"
   xmlns="http://www.w3.org/2000/svg"
   xmlns:sodipodi="http://sodipodi.sourceforge.net/DTD/sodipodi-0.dtd"
   xmlns:inkscape="http://www.inkscape.org/namespaces/inkscape"
   width="210mm"
   height="297mm"
   viewBox="0 0 210 297"
   version="1.1"
   id="svg6725"
   inkscape:version="1.0.1 (c497b03c, 2020-09-10)"
   sodipodi:docname="human_like_diff.svg">
  <defs
     id="defs6719" />
  <sodipodi:namedview
     id="base"
     pagecolor="#ffffff"
     bordercolor="#666666"
     borderopacity="1.0"
     inkscape:pageopacity="0.0"
     inkscape:pageshadow="2"
     inkscape:zoom="0.33441971"
     inkscape:cx="400"
     inkscape:cy="560"
     inkscape:document-units="mm"
     inkscape:current-layer="layer1"
     inkscape:document-rotation="0"
     showgrid="false"
     inkscape:window-width="1252"
     inkscape:window-height="789"
     inkscape:window-x="0"
     inkscape:window-y="25"
     inkscape:window-maximized="0" />
  <metadata
     id="metadata6722">
    <rdf:RDF>
      <cc:Work
         rdf:about="">
        <dc:format>image/svg+xml</dc:format>
        <dc:type
           rdf:resource="http://purl.org/dc/dcmitype/StillImage" />
        <dc:title></dc:title>
      </cc:Work>
    </rdf:RDF>
  </metadata>
  <g
     inkscape:label="Layer 1"
     inkscape:groupmode="layer"
     id="layer1">
    <path
       style="color:#000000;font-style:normal;font-variant:normal;font-weight:normal;font-stretch:normal;font-size:medium;line-height:normal;font-family:sans-serif;font-variant-ligatures:normal;font-variant-position:normal;font-variant-caps:normal;font-variant-numeric:normal;font-variant-alternates:normal;font-variant-east-asian:normal;font-feature-settings:normal;font-variation-settings:normal;text-indent:0;text-align:start;text-decoration:none;text-decoration-line:none;text-decoration-style:solid;text-decoration-color:#000000;letter-spacing:normal;word-spacing:normal;text-transform:none;writing-mode:lr-tb;direction:ltr;text-orientation:mixed;dominant-baseline:auto;baseline-shift:baseline;text-anchor:start;white-space:normal;shape-padding:0;shape-margin:0;inline-size:0;clip-rule:nonzero;display:inline;overflow:visible;visibility:visible;isolation:auto;mix-blend-mode:normal;color-interpolation:sRGB;color-interpolation-filters:linearRGB;solid-color:#000000;solid-opacity:1;vector-effect:none;fill:#000000;fill-opacity:1;fill-rule:nonzero;stroke:none;stroke-width:0.26458300000000001px;stroke-linecap:butt;stroke-linejoin:miter;stroke-miterlimit:4;stroke-dasharray:none;stroke-dashoffset:0;stroke-opacity:1;color-rendering:auto;image-rendering:auto;shape-rendering:auto;text-rendering:auto;enable-background:accumulate;stop-color:#000000;stop-opacity:1;opacity:1"
       d="M 85.041016 52.085938 C 81.066847 52.384 77.57786 53.47077 75.5625 55.460938 C 74.55482 56.456021 73.919344 57.680709 73.792969 59.130859 C 73.666594 60.58101 74.047493 62.251369 75.044922 64.146484 C 79.003943 71.668623 82.764802 77.410612 84.935547 81.357422 C 86.020919 83.330827 86.703327 84.85959 86.822266 85.90625 C 86.881735 86.42958 86.803954 86.822366 86.585938 87.109375 C 86.367921 87.396384 85.996927 87.593937 85.423828 87.689453 C 83.040908 88.086607 79.861028 88.880495 77.068359 90.675781 C 74.275691 92.471068 71.873906 95.276522 71.076172 99.664062 C 70.685824 101.81098 68.804349 108.05544 66.40625 115.81836 C 64.008151 123.58128 61.090018 132.87684 58.617188 141.18555 C 56.144357 149.49426 54.117232 156.81051 53.496094 160.63672 C 53.340809 161.59327 53.272085 162.32981 53.310547 162.82617 C 53.329778 163.07435 53.371614 163.26373 53.46875 163.40234 C 53.517318 163.47165 53.58501 163.52712 53.666016 163.55273 C 53.747021 163.57835 53.834317 163.57392 53.917969 163.54688 C 54.085272 163.49278 54.251815 163.36158 54.449219 163.1582 C 54.646623 162.95483 54.871633 162.67569 55.128906 162.3125 C 55.643452 161.58613 56.287547 160.52631 57.080078 159.08984 C 63.419567 147.59952 70.341817 128.61062 75.580078 116.55273 C 76.889644 113.53826 78.093407 110.95759 79.154297 109.03906 C 80.215187 107.12053 81.154002 105.867 81.835938 105.51758 C 82.006421 105.43022 82.154339 105.39741 82.287109 105.41211 C 82.41988 105.42681 82.543972 105.48665 82.667969 105.60938 C 82.915963 105.85482 83.148766 106.36287 83.326172 107.15625 C 83.680983 108.743 83.831204 111.45772 83.732422 115.50781 C 82.943128 147.86886 88.442959 165.25763 88.474609 165.35742 C 88.462013 165.41117 82.542501 190.66903 77.701172 214.48047 C 75.277931 226.39886 73.127275 237.94475 72.125 245.77734 C 71.623863 249.69364 71.40659 252.67546 71.59375 254.33789 C 71.64054 254.7535 71.713034 255.08752 71.818359 255.33984 C 71.923685 255.59217 72.069195 255.77506 72.275391 255.83594 C 72.481586 255.89681 72.707534 255.81998 72.935547 255.65039 C 73.16356 255.4808 73.409069 255.21295 73.685547 254.83594 C 74.793908 253.32454 75.915989 250.56255 77.078125 246.91211 C 78.240261 243.26167 79.437596 238.72647 80.667969 233.6875 C 83.128715 223.60957 85.724404 211.51827 88.443359 200.49414 C 91.162314 189.47001 94.006749 179.50774 96.949219 173.70898 C 98.420454 170.8096 99.923867 168.9675 101.38281 168.5332 C 102.11229 168.31605 102.83478 168.43247 103.58789 168.94531 C 104.341 169.45816 105.11717 170.37594 105.90234 171.75 C 109.05037 177.25904 111.8235 186.99711 114.25781 197.98242 C 116.69213 208.96773 118.79343 221.20366 120.62305 231.73633 C 122.45267 242.26899 124.00621 251.08963 125.36133 255.2793 C 125.70011 256.32671 126.02206 257.08431 126.35352 257.52344 C 126.51924 257.743 126.6915 257.8912 126.89062 257.93359 C 127.08975 257.97598 127.2917 257.88961 127.45508 257.71484 C 127.78182 257.36532 128.04967 256.66301 128.31836 255.5332 C 128.58705 254.4034 128.84421 252.84665 129.0918 250.81641 C 131.07347 234.56665 127.50771 216.35816 123.55078 200.13477 C 119.59386 183.91137 115.24953 169.65839 115.64258 161.4043 C 116.04019 153.05444 112.87192 135.06983 111.19141 121.72461 C 110.35115 115.052 109.89139 109.52623 110.41211 107.01953 C 110.54229 106.39286 110.73623 105.96253 110.9668 105.75391 C 111.19737 105.54528 111.45682 105.51685 111.84961 105.71289 C 112.63519 106.10496 113.8203 107.47849 115.39844 110.04297 C 121.72429 120.32248 132.20715 139.11403 140.2207 152.07422 C 144.22748 158.55431 147.60177 163.56512 149.57812 165.36523 C 150.07221 165.81526 150.47538 166.07857 150.83594 166.08789 C 151.01622 166.09255 151.18603 166.01621 151.30078 165.87305 C 151.41553 165.72989 151.48352 165.53247 151.52148 165.27734 C 151.67334 164.25682 151.34273 162.25927 150.45117 158.99023 C 146.88492 145.91398 138.57263 128.70199 130.0625 114.65039 C 125.80744 107.62459 121.50431 101.38992 117.71484 96.857422 C 115.82011 94.591174 114.05277 92.75214 112.48242 91.449219 C 110.91208 90.146297 109.54069 89.37497 108.40234 89.271484 C 104.0257 88.873609 101.02869 89.868939 99.074219 90.162109 C 98.096983 90.308695 97.404684 90.278202 96.904297 89.857422 C 96.40391 89.436642 96.059476 88.581271 95.863281 87.011719 C 95.674492 85.501406 96.73223 83.640097 98.345703 81.558594 C 99.959176 79.47709 102.11003 77.178558 104.04297 74.75 C 105.9759 72.321442 107.6938 69.764093 108.43164 67.150391 C 109.16948 64.536688 108.91328 61.859329 106.91211 59.257812 C 104.90819 56.652722 101.42395 54.716665 97.451172 53.5 C 93.478389 52.283335 89.015184 51.787875 85.041016 52.085938 z M 85.060547 52.349609 C 88.998093 52.054294 93.436067 52.547608 97.375 53.753906 C 101.31393 54.960204 104.75118 56.880444 106.70312 59.417969 C 108.65781 61.959066 108.89666 64.524489 108.17578 67.078125 C 107.4549 69.631761 105.75997 72.166617 103.83594 74.583984 C 101.91191 77.001352 99.762104 79.299613 98.136719 81.396484 C 96.511333 83.493355 95.392813 85.390548 95.599609 87.044922 C 95.799001 88.640055 96.146901 89.566535 96.734375 90.060547 C 97.321849 90.554559 98.112588 90.573932 99.113281 90.423828 C 101.11467 90.12362 104.05266 89.139909 108.37891 89.533203 C 109.41628 89.62751 110.76338 90.365415 112.31445 91.652344 C 113.86552 92.939272 115.62366 94.76908 117.51172 97.027344 C 121.28783 101.54387 125.58591 107.77157 129.83594 114.78906 C 138.336 128.82405 146.64102 146.02814 150.19531 159.06055 C 151.08389 162.31868 151.39533 164.32723 151.25977 165.23828 C 151.22587 165.46604 151.1639 165.62147 151.09375 165.70898 C 151.0236 165.7965 150.95299 165.82709 150.8418 165.82422 C 150.61941 165.81847 150.23219 165.60378 149.75586 165.16992 C 147.85053 163.43449 144.4511 158.40893 140.44727 151.93359 C 132.4396 138.98292 121.95594 120.19525 115.62305 109.9043 C 114.0365 107.32616 112.87368 105.9282 111.96875 105.47656 C 111.51628 105.25074 111.09431 105.2824 110.78906 105.55859 C 110.48381 105.83479 110.28795 106.314 110.15234 106.9668 C 109.60992 109.57799 110.0887 115.07941 110.92969 121.75781 C 112.61166 135.11462 115.77246 153.12783 115.37891 161.39258 C 114.98079 169.7531 119.34013 183.98263 123.29492 200.19727 C 127.24971 216.4119 130.80425 234.59688 128.83008 250.78516 C 128.58319 252.80967 128.32731 254.35718 128.0625 255.4707 C 127.79769 256.58423 127.51135 257.26617 127.26172 257.5332 C 127.1369 257.66672 127.04583 257.69523 126.94531 257.67383 C 126.8448 257.65243 126.71029 257.55649 126.56445 257.36328 C 126.27278 256.97685 125.94823 256.23481 125.61328 255.19922 C 124.27347 251.05686 122.71236 242.22368 120.88281 231.69141 C 119.05326 221.15913 116.95196 208.92021 114.51562 197.92578 C 112.07929 186.93136 109.31221 177.1865 106.13086 171.61914 C 105.33369 170.2241 104.54045 169.27415 103.73633 168.72656 C 102.93221 168.17898 102.11047 168.0406 101.30859 168.2793 C 99.704842 168.7567 98.198139 170.6667 96.714844 173.58984 C 93.748253 179.43614 90.905895 189.40186 88.185547 200.43164 C 85.465199 211.46142 82.869507 223.55083 80.410156 233.62305 C 79.180481 238.65916 77.985012 243.19195 76.826172 246.83203 C 75.667332 250.47212 74.540017 253.22419 73.472656 254.67969 C 73.205204 255.0444 72.969979 255.29618 72.777344 255.43945 C 72.584709 255.58273 72.449589 255.61097 72.351562 255.58203 C 72.253536 255.55309 72.151829 255.45228 72.0625 255.23828 C 71.973171 255.02428 71.902574 254.70966 71.857422 254.30859 C 71.676812 252.70435 71.886529 249.71943 72.386719 245.81055 C 73.387097 237.99277 75.538253 226.44885 77.960938 214.5332 C 82.806306 190.7019 88.740234 165.38477 88.740234 165.38477 L 88.748047 165.34961 L 88.736328 165.31445 C 88.736328 165.31445 83.205318 147.9355 83.996094 115.51367 C 84.095104 111.45425 83.949263 108.73122 83.583984 107.09766 C 83.401345 106.28087 83.168382 105.7335 82.853516 105.42188 C 82.696083 105.26606 82.512437 105.17015 82.316406 105.14844 C 82.120375 105.12673 81.918312 105.17699 81.714844 105.28125 C 80.900971 105.69828 79.990349 106.97791 78.921875 108.91016 C 77.853401 110.8424 76.647128 113.42905 75.335938 116.44727 C 70.091177 128.52011 63.166911 147.50729 56.847656 158.96094 C 56.057844 160.39247 55.41666 161.44789 54.912109 162.16016 C 54.659834 162.51629 54.442398 162.78645 54.259766 162.97461 C 54.077133 163.16276 53.926693 163.26558 53.835938 163.29492 C 53.79056 163.30959 53.765035 163.30677 53.746094 163.30078 C 53.727152 163.29479 53.708785 163.28316 53.685547 163.25 C 53.639071 163.18368 53.591688 163.03013 53.574219 162.80469 C 53.539281 162.3538 53.604046 161.62494 53.757812 160.67773 C 54.37288 156.88892 56.399102 149.56761 58.871094 141.26172 C 61.343085 132.95583 64.259825 123.66031 66.658203 115.89648 C 69.056582 108.13266 70.935114 101.91547 71.335938 99.710938 C 72.120546 95.395591 74.465406 92.663422 77.210938 90.898438 C 79.956469 89.133453 83.10464 88.345191 85.46875 87.951172 C 86.082407 87.848896 86.52659 87.625349 86.796875 87.269531 C 87.06716 86.913713 87.150089 86.441484 87.085938 85.876953 C 86.957635 84.747891 86.256364 83.210968 85.166016 81.228516 C 82.985318 77.26361 79.231992 71.533556 75.279297 64.023438 C 74.298797 62.160488 73.935774 60.541238 74.056641 59.154297 C 74.177507 57.767356 74.777798 56.606558 75.748047 55.648438 C 77.688545 53.732196 81.123 52.644925 85.060547 52.349609 z "
       id="path7292" />
  </g>
</svg>
