<?xml version="1.0" encoding="UTF-8" standalone="no"?>
<svg
   xmlns:dc="http://purl.org/dc/elements/1.1/"
   xmlns:cc="http://creativecommons.org/ns#"
   xmlns:rdf="http://www.w3.org/1999/02/22-rdf-syntax-ns#"
   xmlns:svg="http://www.w3.org/2000/svg"
   xmlns="http://www.w3.org/2000/svg"
   xmlns:sodipodi="http://sodipodi.sourceforge.net/DTD/sodipodi-0.dtd"
   xmlns:inkscape="http://www.inkscape.org/namespaces/inkscape"
   width="210mm"
   height="297mm"
   viewBox="0 0 210 297"
   version="1.1"
   id="svg2060"
   inkscape:version="1.0.1 (c497b03c, 2020-09-10)"
   sodipodi:docname="human_like_bump_in_arm.svg">
  <defs
     id="defs2054" />
  <sodipodi:namedview
     id="base"
     pagecolor="#ffffff"
     bordercolor="#666666"
     borderopacity="1.0"
     inkscape:pageopacity="0.0"
     inkscape:pageshadow="2"
     inkscape:zoom="0.33441971"
     inkscape:cx="400"
     inkscape:cy="560"
     inkscape:document-units="mm"
     inkscape:current-layer="layer1"
     inkscape:document-rotation="0"
     showgrid="false"
     inkscape:window-width="1252"
     inkscape:window-height="789"
     inkscape:window-x="0"
     inkscape:window-y="25"
     inkscape:window-maximized="0" />
  <metadata
     id="metadata2057">
    <rdf:RDF>
      <cc:Work
         rdf:about="">
        <dc:format>image/svg+xml</dc:format>
        <dc:type
           rdf:resource="http://purl.org/dc/dcmitype/StillImage" />
        <dc:title></dc:title>
      </cc:Work>
    </rdf:RDF>
  </metadata>
  <g
     inkscape:label="Layer 1"
     inkscape:groupmode="layer"
     id="layer1">
    <path
       style="fill:none;stroke:#000000;stroke-width:0.264583px;stroke-linecap:butt;stroke-linejoin:miter;stroke-opacity:1"
       d="m 76.450742,115.10739 c 0,0 -1.768878,23.69258 -5.823527,46.91273 -4.062806,23.26685 -10.404655,46.06254 -3.671939,47.25067 13.45191,2.37387 22.156092,-83.08535 29.277689,-83.08535 7.121605,0 13.451915,78.33762 19.782225,77.54633 1.68734,-0.21092 8.33079,-1.35114 8.95055,-7.09502 0.97604,-9.04584 -4.78895,-25.99589 -5.83302,-41.90986 -0.53089,-8.09163 -4.36012,-17.10885 -5.16305,-25.40806 -0.37705,-3.89715 -2.54178,-19.50531 -3.4935,-22.91562 -9.49547,-34.025425 -8.70417,-43.520895 0.7913,-39.564448 4.43803,1.849186 3.90937,8.511471 5.98938,16.284829 2.37031,8.858229 -2.86732,30.556069 4.29736,28.027359 4.89752,-1.72854 6.75067,-8.25128 6.32446,-16.616769 -0.22285,-4.373901 12.16489,-17.7393 10.14632,-22.040001 -1.54999,-3.302394 -14.52006,-7.238555 -15.50115,-9.961252 -2.00958,-5.576864 -4.30066,-7.800409 -8.09122,-7.563501 -5.88626,0.367892 -11.79498,-3.797713 -11.96039,-5.530329 -0.19036,-1.994022 9.10655,-19.199712 10.37674,-22.163494 C 115.22285,21.73658 108.89314,1.1640063 93.067346,1.9552953 77.241562,2.7465843 73.285938,23.318688 74.077228,28.066423 c 0.791289,4.747736 13.451564,23.737849 1.582225,24.529138 -11.869334,0.791287 -15.034489,14.243201 -16.617068,33.234141 -0.657868,7.89441 -0.378822,30.034478 4.325445,24.190048 6.612399,-8.21503 7.010202,-47.01325 10.709044,-42.389699 6.330312,7.912892 2.373868,47.477339 2.373868,47.477339 z"
       id="path833"
       sodipodi:nodetypes="csssssssssssssssssssssssc" />
  </g>
</svg>
