<?xml version="1.0" encoding="UTF-8" standalone="no"?>
<svg
   xmlns:dc="http://purl.org/dc/elements/1.1/"
   xmlns:cc="http://creativecommons.org/ns#"
   xmlns:rdf="http://www.w3.org/1999/02/22-rdf-syntax-ns#"
   xmlns:svg="http://www.w3.org/2000/svg"
   xmlns="http://www.w3.org/2000/svg"
   xmlns:sodipodi="http://sodipodi.sourceforge.net/DTD/sodipodi-0.dtd"
   xmlns:inkscape="http://www.inkscape.org/namespaces/inkscape"
   width="210mm"
   height="297mm"
   viewBox="0 0 210 297"
   version="1.1"
   id="svg6634"
   inkscape:version="1.0.1 (c497b03c, 2020-09-10)"
   sodipodi:docname="non_star_shaped_poor_initial.svg">
  <defs
     id="defs6628" />
  <sodipodi:namedview
     id="base"
     pagecolor="#ffffff"
     bordercolor="#666666"
     borderopacity="1.0"
     inkscape:pageopacity="0.0"
     inkscape:pageshadow="2"
     inkscape:zoom="0.35"
     inkscape:cx="400"
     inkscape:cy="674.28571"
     inkscape:document-units="mm"
     inkscape:current-layer="layer1"
     inkscape:document-rotation="0"
     showgrid="false"
     inkscape:window-width="1252"
     inkscape:window-height="791"
     inkscape:window-x="1768"
     inkscape:window-y="55"
     inkscape:window-maximized="0" />
  <metadata
     id="metadata6631">
    <rdf:RDF>
      <cc:Work
         rdf:about="">
        <dc:format>image/svg+xml</dc:format>
        <dc:type
           rdf:resource="http://purl.org/dc/dcmitype/StillImage" />
        <dc:title></dc:title>
      </cc:Work>
    </rdf:RDF>
  </metadata>
  <g
     inkscape:label="Layer 1"
     inkscape:groupmode="layer"
     id="layer1">
    <path
       id="path12"
       style="fill:#ffffff;fill-rule:evenodd;stroke:#000000;stroke-width:0.4;stroke-miterlimit:4;stroke-dasharray:none;stroke-opacity:0.959514"
       d="m 149.07888,138.40995 c 0,15.16485 -36.21279,-11.81029 -45.68525,-1.54225 -3.05792,3.31475 -8.378079,9.06687 -8.387689,16.59129 -0.02291,17.93616 8.892629,42.40334 -2.623493,42.40334 -16.329205,0 -31.046083,-6.99524 -41.391496,-18.18979 -9.492755,-10.2719 16.468089,-21.69646 16.468089,-36.87961 0,-13.01697 -27.500987,-27.40582 -20.300142,-37.03946 10.351887,-13.849265 37.082899,7.38847 55.549781,7.38847 17.45422,0 13.20815,-37.284225 23.60847,-24.714115 5.03468,6.08506 12.39132,18.853095 17.367,31.075715 3.18522,7.82442 5.39473,15.42533 5.39473,20.90641 z"
       sodipodi:nodetypes="sssssssssss" />
  </g>
</svg>
